<?xml version="1.0" encoding="UTF-8"?>
<svg width="233px" height="76px" viewBox="0 0 233 76" version="1.1" xmlns="http://www.w3.org/2000/svg" xmlns:xlink="http://www.w3.org/1999/xlink">
    <!-- Generator: Sketch 60 (88103) - https://sketch.com -->
    <title>logo-cu-slogan</title>
    <desc>Created with Sketch.</desc>
    <g id="logo-cu-slogan" stroke="none" stroke-width="1" fill="none" fill-rule="evenodd">
        <path d="M46,0 L46,5 L70,24 L70,46 L46,46 L46,70 L24,70 L24,65 L0,46 L0,24 L24,24 L24,0 L46,0 Z M68,26 L42,26 L42,65 L26,65 L26,68 L44,68 L44,44 L68,44 L68,26 Z M35.1882404,55.8000766 L32.4143986,55.8000766 L32.4143986,62.0444663 L34.2492019,62.0444663 L34.2492019,59.9500209 L34.8507059,59.9500209 L35.8373454,62.0444663 L37.8885171,62.0444663 L36.7028187,59.6773969 C37.356251,59.3658265 37.711095,58.6561384 37.711095,57.9204861 C37.711095,56.5833299 36.8542765,55.8000766 35.1882404,55.8000766 L35.1882404,55.8000766 Z M35.0108184,57.1545423 C35.5041382,57.1545423 35.8373454,57.4877495 35.8373454,57.9507777 C35.8373454,58.4224606 35.5214476,58.7383584 35.006491,58.7383584 L35.006491,58.7383584 L34.2492019,58.7383584 L34.2492019,57.1545423 Z M35,47.7358326 C33.0699946,47.7358326 31.8540046,48.9734594 31.8540046,50.9683753 C31.8540046,52.9632912 33.0656672,54.1965906 35,54.1965906 C36.9300054,54.1965906 38.1459954,52.9632912 38.1459954,50.9683753 C38.1459954,48.9734594 36.9300054,47.7358326 35,47.7358326 Z M35,49.1984825 C35.7659438,49.1984825 36.2765731,49.8865337 36.2765731,50.9683753 C36.2765731,52.0458896 35.7702712,52.7339408 35,52.7339408 C34.2297288,52.7339408 33.7234269,52.0458896 33.7234269,50.9683753 C33.7234269,49.8865337 34.2340562,49.1984825 35,49.1984825 Z M34.9069616,39.887957 L32.2369766,39.887957 L32.2369766,46.1323467 L34.9069616,46.1323467 C36.7980207,46.1323467 37.9144813,44.9639578 37.9144813,42.9647145 C37.9144813,40.9654712 36.8023481,39.887957 34.9069616,39.887957 L34.9069616,39.887957 Z M34.6473196,41.3462795 C35.525775,41.3462795 36.045059,41.9131645 36.045059,42.9647145 C36.045059,44.115794 35.5647213,44.6740242 34.6473196,44.6740242 L34.6473196,44.6740242 L34.0717799,44.6740242 L34.0717799,41.3462795 Z M44,2 L26,2 L26,26 L2,26 L2,44 L28,44 L28,5 L44,5 L44,2 Z M36.1510795,31.9318972 L33.8489205,31.9318972 L31.810731,38.1762869 L33.6801533,38.1762869 L34.0047057,36.9343328 L35.9087469,36.9343328 L36.2332994,38.1762869 L38.189269,38.1762869 L36.1510795,31.9318972 Z M34.9740358,33.3729102 L35.5755397,35.6404502 L34.3379129,35.6404502 L34.9394169,33.3729102 L34.9740358,33.3729102 Z M33.6238975,23.9758375 L32.200194,23.9758375 L32.200194,30.2202271 L33.9311405,30.2202271 L33.9311405,26.9314287 L33.9657594,26.9314287 L36.393412,30.2202271 L37.799806,30.2202271 L37.799806,23.9758375 L36.0688595,23.9758375 L36.0688595,27.2127075 L36.0342406,27.2127075 L33.6238975,23.9758375 Z M36.1510795,16.0197777 L33.8489205,16.0197777 L31.810731,22.2641674 L33.6801533,22.2641674 L34.0047057,21.0222132 L35.9087469,21.0222132 L36.2332994,22.2641674 L38.189269,22.2641674 L36.1510795,16.0197777 Z M34.9740358,17.4607907 L35.5755397,19.7283307 L34.3379129,19.7283307 L34.9394169,17.4607907 L34.9740358,17.4607907 Z M34.9697084,7.95553374 C33.4810944,7.95553374 32.3992528,8.75176915 32.3992528,10.0153601 C32.3992528,10.9933449 33.0223936,11.6511046 34.1691457,11.8501635 L34.1691457,11.8501635 L34.9956726,11.9972939 C35.6664144,12.1184602 35.8957648,12.2439538 35.8957648,12.5338874 C35.8957648,12.836803 35.5582303,13.0574987 35.0086547,13.0574987 C34.515335,13.0574987 34.0825983,12.8238209 34.0306699,12.4689769 L34.0306699,12.4689769 L32.295396,12.4689769 C32.2997234,13.7152584 33.299345,14.4162917 34.9740358,14.4162917 C36.6357445,14.4162917 37.704604,13.6027469 37.704604,12.3261738 C37.704604,11.31357 37.137719,10.7380303 35.9260564,10.5259894 L35.9260564,10.5259894 L35.0692379,10.3788589 C34.4763887,10.2750021 34.2210741,10.1192169 34.2210741,9.82062865 C34.2210741,9.50905827 34.5239897,9.30999941 35.0043274,9.30999941 C35.4976471,9.30999941 35.8827827,9.53934983 35.8957648,9.92881281 L35.8957648,9.92881281 L37.5704556,9.92881281 C37.5618009,8.71715022 36.6314171,7.95553374 34.9697084,7.95553374 Z" id="Combined-Shape" fill="#004584"></path>
        <path d="M91.6147461,45.3540039 C97.0522461,45.3540039 100.549805,42.6918945 100.549805,38.5146484 C100.549805,35.2011719 98.6948242,33.3178711 94.7299805,32.6240234 L91.9262695,32.1425781 C89.9863281,31.8027344 89.1508789,31.2929688 89.1508789,30.315918 C89.1508789,29.2963867 90.1420898,28.6450195 91.7138672,28.6450195 C93.328125,28.6450195 94.5883789,29.3955078 94.6308594,30.6699219 L100.11084,30.6699219 C100.08252,26.7050781 97.0380859,24.2128906 91.6005859,24.2128906 C86.7294922,24.2128906 83.1894531,26.8183594 83.1894531,30.953125 C83.1894531,34.1533203 85.2285156,36.3056641 88.980957,36.9570312 L91.6855469,37.4384766 C93.8803711,37.8349609 94.6308594,38.2456055 94.6308594,39.1943359 C94.6308594,40.1855469 93.5263672,40.9077148 91.7280273,40.9077148 C90.1137695,40.9077148 88.6977539,40.1430664 88.527832,38.9819336 L82.8496094,38.9819336 C82.8637695,43.0600586 86.1347656,45.3540039 91.6147461,45.3540039 Z M107.691797,45 L108.753809,40.9360352 L114.984277,40.9360352 L116.046289,45 L122.44668,45 L115.777246,24.5668945 L108.244043,24.5668945 L101.574609,45 L107.691797,45 Z M113.893945,36.7021484 L109.844141,36.7021484 L111.812402,29.2822266 L111.925684,29.2822266 L113.893945,36.7021484 Z M130.551562,45 L130.551562,34.2382812 L130.664844,34.2382812 L138.608691,45 L143.210742,45 L143.210742,24.5668945 L137.54668,24.5668945 L137.54668,35.1586914 L137.433398,35.1586914 L129.546191,24.5668945 L124.8875,24.5668945 L124.8875,45 L130.551562,45 Z M151.76875,45 L152.830762,40.9360352 L159.06123,40.9360352 L160.123242,45 L166.523633,45 L159.854199,24.5668945 L152.320996,24.5668945 L145.651563,45 L151.76875,45 Z M157.970898,36.7021484 L153.921094,36.7021484 L155.889355,29.2822266 L156.002637,29.2822266 L157.970898,36.7021484 Z M177.70127,45 C183.889258,45 187.542578,41.1767578 187.542578,34.6347656 C187.542578,28.0927734 183.903418,24.5668945 177.70127,24.5668945 L168.964453,24.5668945 L168.964453,45 L177.70127,45 Z M176.85166,40.2280273 L174.968359,40.2280273 L174.968359,29.3388672 L176.85166,29.3388672 C179.726172,29.3388672 181.425391,31.1938477 181.425391,34.6347656 C181.425391,38.4013672 179.853613,40.2280273 176.85166,40.2280273 Z M200.277832,45.3540039 C206.593262,45.3540039 210.572266,41.3183594 210.572266,34.7905273 C210.572266,28.2626953 206.593262,24.2128906 200.277832,24.2128906 C193.962402,24.2128906 189.983398,28.2626953 189.983398,34.7905273 C189.983398,41.3183594 193.948242,45.3540039 200.277832,45.3540039 Z M200.277832,40.5678711 C197.757324,40.5678711 196.100586,38.3164062 196.100586,34.7905273 C196.100586,31.2504883 197.771484,28.9990234 200.277832,28.9990234 C202.78418,28.9990234 204.455078,31.2504883 204.455078,34.7905273 C204.455078,38.3164062 202.79834,40.5678711 200.277832,40.5678711 Z M219.512598,45 L219.512598,38.1464844 L221.480859,38.1464844 L224.709375,45 L231.421289,45 L227.541406,37.2543945 C229.67959,36.2348633 230.840723,33.9125977 230.840723,31.5053711 C230.840723,27.1298828 228.037012,24.5668945 222.585352,24.5668945 L213.508691,24.5668945 L213.508691,45 L219.512598,45 Z M221.990625,34.1816406 L219.512598,34.1816406 L219.512598,28.9990234 L222.004785,28.9990234 C223.619043,28.9990234 224.709375,30.0893555 224.709375,31.6044922 C224.709375,33.1479492 223.675684,34.1816406 221.990625,34.1816406 Z" id="SANADOR" fill="#004584" fill-rule="nonzero"></path>
        <path d="M83,69.7650602 L84.1845563,69.0375987 C84.37037,70.1958928 85.0555476,70.7750312 86.2401098,70.7750312 C86.8161322,70.7750312 87.2876274,70.6161212 87.6546094,70.2982966 C88.0215914,69.980472 88.2050797,69.5720147 88.2050797,69.0729123 C88.2050797,68.390178 87.7986183,67.7121623 86.9856835,67.038845 L86.1425581,66.3466971 C85.4643382,65.7816756 85.0114242,65.3355507 84.7838024,65.0083091 C84.5561806,64.6810675 84.4423715,64.3126319 84.4423715,63.9029913 C84.4423715,63.1307952 84.7466368,62.4928013 85.3551766,61.9889904 C85.9637164,61.4851796 86.732509,61.2332779 87.6615774,61.2332779 C88.4001868,61.2332779 89.0993002,61.4121987 89.7589388,61.7700457 L89.3547961,62.7093893 L89.1736286,63.1260906 C89.0714311,63.3709332 88.950654,63.4933527 88.8112938,63.4933527 C88.7509043,63.4933527 88.6881932,63.4698105 88.6231584,63.4227254 C88.7021292,63.1778827 88.741614,62.9824824 88.741614,62.8365185 C88.741614,62.5351737 88.5778681,62.283272 88.2503715,62.080806 C87.9228749,61.8783399 87.5175749,61.7771084 87.0344593,61.7771084 C85.9381586,61.7771084 85.3900165,62.2361815 85.3900165,63.1543415 C85.3900165,63.4839374 85.5119549,63.8005801 85.7558354,64.1042792 C85.9997158,64.4079783 86.5072118,64.8776453 87.2783386,65.5132946 L87.9542325,66.0783133 C88.8136207,66.7845902 89.2433084,67.5261698 89.2433084,68.3030744 C89.2433084,69.1600237 88.8867838,69.8733526 88.1737238,70.4430827 C87.4606638,71.0128127 86.5699328,71.2976735 85.5015042,71.2976735 C84.2008084,71.2976735 83.366982,70.7868075 83,69.7650602 Z M94.8725698,68.2112588 C94.3476461,69.0870422 93.770471,69.8039025 93.1410272,70.3618612 C92.5115834,70.91982 91.9646025,71.1987952 91.5000683,71.1987952 C90.8636565,71.1987952 90.5454553,70.6785123 90.5454553,69.637931 C90.5454553,68.2065432 91.0088213,66.9670458 91.935567,65.9194017 C92.8623127,64.8717577 93.9597583,64.3479435 95.2279367,64.3479435 C95.7110522,64.3479435 96.1221588,64.4091532 96.4612688,64.5315746 C96.4380421,64.6163278 96.4241063,64.6681207 96.4194609,64.6869547 L96.3358452,65.0612796 C96.2801011,65.3202478 96.2499068,65.4709179 96.2452615,65.5132946 L95.7993109,68.6350229 L95.7365991,69.0870378 C95.6762096,69.5343465 95.6460153,69.8333326 95.6460153,69.984005 C95.6460153,70.186471 95.7040812,70.2877025 95.8202148,70.2877025 C96.2104235,70.2877025 96.6099169,69.845109 97.018707,68.9599086 C97.1441313,69.0352448 97.2068425,69.1105799 97.2068425,69.1859161 C97.2068425,69.350714 97.0070957,69.6826592 96.6075963,70.1817615 C96.0640913,70.8597874 95.5600793,71.1987952 95.0955451,71.1987952 C94.7564351,71.1987952 94.5868827,70.9680815 94.5868827,70.5066473 C94.5868827,70.3653919 94.6031411,70.1699916 94.6356585,69.9204404 L94.7053383,69.3554217 L94.795922,68.7339011 L94.8725698,68.2112588 Z M95.2697445,65.4073536 C94.8470184,65.1672194 94.4196534,65.0471541 93.9876365,65.0471541 C93.3372887,65.0471541 92.7914692,65.4497259 92.3501617,66.2548816 C91.9088542,67.0600373 91.6882038,68.058227 91.6882038,69.2494807 C91.6882038,69.8615873 91.8670467,70.1676361 92.2247381,70.1676361 C92.6381735,70.1676361 93.1375403,69.847462 93.7228534,69.2071043 C94.5125615,68.3454465 94.9910246,67.3331314 95.1582569,66.1701288 L95.2697445,65.4073536 Z M93.5068461,61.657042 L94.2942276,60.8307021 C94.2849369,60.9342894 94.2802916,61.0119787 94.2802916,61.0637723 C94.2663556,61.2191532 94.2593877,61.3298016 94.2593877,61.3957208 C94.2593877,62.1773339 94.4707476,62.5681346 94.8934737,62.5681346 C95.1629035,62.5681346 95.431168,62.4045162 95.6982752,62.0772746 C95.9653823,61.750033 96.1662904,61.334513 96.3010053,60.8307021 C96.4589469,60.8777872 96.5379165,60.9696019 96.5379165,61.1061487 C96.5379165,61.5487489 96.3091369,62.0325413 95.8515707,62.5575405 C95.3940045,63.0825397 94.9747687,63.3450353 94.5938506,63.3450353 C93.8691773,63.3450353 93.5068461,62.7823765 93.5068461,61.657042 Z M99.6447698,70.7679684 L98.6065411,71.1987952 L98.627445,71.0010386 L98.6831888,70.4783963 L98.7389327,69.984005 L99.1012675,66.7068966 L99.1430754,66.3325717 C99.1709474,66.0406439 99.1848833,65.8052218 99.1848833,65.6262983 C99.1848833,65.3249535 99.1105589,65.1742833 98.961908,65.1742833 C98.6135073,65.1742833 98.2395629,65.5745009 97.8400635,66.3749481 C97.7332206,66.2854863 97.6798,66.207797 97.6798,66.1418779 C97.6798,65.8593671 97.9341286,65.474452 98.4427936,64.9871209 C98.9514585,64.4997898 99.3521133,64.256128 99.6447698,64.256128 C100.044269,64.256128 100.244016,64.5150923 100.244016,65.0330287 C100.244016,65.164867 100.232403,65.3414336 100.209176,65.5627337 L100.153432,66.1348151 L100.097688,66.615081 L100.041945,67.1165351 C100.590095,66.2878369 101.190496,65.6039357 101.843167,65.064811 C102.495837,64.5256863 103.052109,64.256128 103.511998,64.256128 C103.962596,64.256128 104.187892,64.5739478 104.187892,65.209597 C104.187892,65.402646 104.162343,65.6922152 104.111244,66.0783133 L103.734973,68.7127129 C103.660648,69.2400663 103.623485,69.6567635 103.623485,69.9628168 C103.623485,70.2076594 103.688519,70.3300789 103.818589,70.3300789 C104.139117,70.3300789 104.533965,69.8969023 105.003145,69.0305359 C105.114633,69.1011636 105.170376,69.1741445 105.170376,69.2494807 C105.170376,69.555534 104.911403,69.9569287 104.393447,70.4536768 C103.875491,70.9504249 103.453933,71.1987952 103.128759,71.1987952 C102.766422,71.1987952 102.585257,70.9351224 102.585257,70.407769 C102.585257,70.021671 102.634032,69.4872628 102.731584,68.8045285 L102.975463,67.0953469 C103.054434,66.5397424 103.093919,66.0995031 103.093919,65.7746157 C103.093919,65.4026432 102.966174,65.2166597 102.71068,65.2166597 C102.116076,65.2166597 101.513352,65.6251171 100.90249,66.442044 C100.291627,67.258971 99.9351027,68.1359183 99.8329052,69.0729123 L99.6447698,70.7679684 Z M110.054064,68.2112588 C109.529141,69.0870422 108.951965,69.8039025 108.322522,70.3618612 C107.693078,70.91982 107.146097,71.1987952 106.681563,71.1987952 C106.045151,71.1987952 105.72695,70.6785123 105.72695,69.637931 C105.72695,68.2065432 106.190316,66.9670458 107.117061,65.9194017 C108.043807,64.8717577 109.141253,64.3479435 110.409431,64.3479435 C110.892547,64.3479435 111.303653,64.4091532 111.642763,64.5315746 C111.619536,64.6163278 111.605601,64.6681207 111.600955,64.6869547 L111.51734,65.0612796 C111.461595,65.3202478 111.431401,65.4709179 111.426756,65.5132946 L110.980805,68.6350229 L110.918093,69.0870378 C110.857704,69.5343465 110.82751,69.8333326 110.82751,69.984005 C110.82751,70.186471 110.885576,70.2877025 111.001709,70.2877025 C111.391918,70.2877025 111.791411,69.845109 112.200201,68.9599086 C112.325626,69.0352448 112.388337,69.1105799 112.388337,69.1859161 C112.388337,69.350714 112.18859,69.6826592 111.789091,70.1817615 C111.245586,70.8597874 110.741574,71.1987952 110.277039,71.1987952 C109.93793,71.1987952 109.768377,70.9680815 109.768377,70.5066473 C109.768377,70.3653919 109.784636,70.1699916 109.817153,69.9204404 L109.886833,69.3554217 L109.977416,68.7339011 L110.054064,68.2112588 Z M110.451239,65.4073536 C110.028513,65.1672194 109.601148,65.0471541 109.169131,65.0471541 C108.518783,65.0471541 107.972964,65.4497259 107.531656,66.2548816 C107.090349,67.0600373 106.869698,68.058227 106.869698,69.2494807 C106.869698,69.8615873 107.048541,70.1676361 107.406232,70.1676361 C107.819668,70.1676361 108.319035,69.847462 108.904348,69.2071043 C109.694056,68.3454465 110.172519,67.3331314 110.339751,66.1701288 L110.451239,65.4073536 Z M108.68834,61.657042 L109.475722,60.8307021 C109.466431,60.9342894 109.461786,61.0119787 109.461786,61.0637723 C109.44785,61.2191532 109.440882,61.3298016 109.440882,61.3957208 C109.440882,62.1773339 109.652242,62.5681346 110.074968,62.5681346 C110.344398,62.5681346 110.612662,62.4045162 110.87977,62.0772746 C111.146877,61.750033 111.347785,61.334513 111.4825,60.8307021 C111.640441,60.8777872 111.719411,60.9696019 111.719411,61.1061487 C111.719411,61.5487489 111.490631,62.0325413 111.033065,62.5575405 C110.575499,63.0825397 110.156263,63.3450353 109.775345,63.3450353 C109.050672,63.3450353 108.68834,62.7823765 108.68834,61.657042 Z M115.132855,65.2590361 L114.784456,68.3807644 C114.724067,68.9410774 114.693873,69.3554203 114.693873,69.6238056 C114.693873,70.1558675 114.872716,70.4218945 115.230407,70.4218945 C115.61597,70.4218945 116.015464,70.1017204 116.428899,69.4613627 C116.498579,69.5508244 116.533419,69.6308679 116.533419,69.7014956 C116.533419,69.9651723 116.304639,70.280638 115.847073,70.647902 C115.389507,71.0151659 114.99582,71.1987952 114.666001,71.1987952 C114.006362,71.1987952 113.676548,70.770327 113.676548,69.9133776 C113.676548,69.5979073 113.716033,69.0870413 113.795003,68.3807644 L114.136434,65.2590361 L112.666191,65.2590361 L113.481444,64.439759 L114.227018,64.439759 L114.373346,63.1543415 L115.397638,62.8082676 L115.223439,64.439759 L118.177862,64.439759 L117.362608,65.2590361 L115.132855,65.2590361 Z M122.12784,68.2112588 C121.602917,69.0870422 121.025742,69.8039025 120.396298,70.3618612 C119.766854,70.91982 119.219873,71.1987952 118.755339,71.1987952 C118.118927,71.1987952 117.800726,70.6785123 117.800726,69.637931 C117.800726,68.2065432 118.264092,66.9670458 119.190838,65.9194017 C120.117583,64.8717577 121.215029,64.3479435 122.483207,64.3479435 C122.966323,64.3479435 123.377429,64.4091532 123.716539,64.5315746 C123.693313,64.6163278 123.679377,64.6681207 123.674731,64.6869547 L123.591116,65.0612796 C123.535372,65.3202478 123.505177,65.4709179 123.500532,65.5132946 L123.054581,68.6350229 L122.99187,69.0870378 C122.93148,69.5343465 122.901286,69.8333326 122.901286,69.984005 C122.901286,70.186471 122.959352,70.2877025 123.075485,70.2877025 C123.465694,70.2877025 123.865187,69.845109 124.273978,68.9599086 C124.399402,69.0352448 124.462113,69.1105799 124.462113,69.1859161 C124.462113,69.350714 124.262366,69.6826592 123.862867,70.1817615 C123.319362,70.8597874 122.81535,71.1987952 122.350816,71.1987952 C122.011706,71.1987952 121.842153,70.9680815 121.842153,70.5066473 C121.842153,70.3653919 121.858412,70.1699916 121.890929,69.9204404 L121.960609,69.3554217 L122.051193,68.7339011 L122.12784,68.2112588 Z M122.525015,65.4073536 C122.102289,65.1672194 121.674924,65.0471541 121.242907,65.0471541 C120.592559,65.0471541 120.04674,65.4497259 119.605432,66.2548816 C119.164125,67.0600373 118.943474,68.058227 118.943474,69.2494807 C118.943474,69.8615873 119.122317,70.1676361 119.480009,70.1676361 C119.893444,70.1676361 120.392811,69.847462 120.978124,69.2071043 C121.767832,68.3454465 122.246295,67.3331314 122.413527,66.1701288 L122.525015,65.4073536 Z M127.206631,65.2590361 L126.858232,68.3807644 C126.797843,68.9410774 126.767649,69.3554203 126.767649,69.6238056 C126.767649,70.1558675 126.946492,70.4218945 127.304183,70.4218945 C127.689746,70.4218945 128.08924,70.1017204 128.502675,69.4613627 C128.572355,69.5508244 128.607195,69.6308679 128.607195,69.7014956 C128.607195,69.9651723 128.378415,70.280638 127.920849,70.647902 C127.463283,71.0151659 127.069596,71.1987952 126.739777,71.1987952 C126.080138,71.1987952 125.750324,70.770327 125.750324,69.9133776 C125.750324,69.5979073 125.789809,69.0870413 125.86878,68.3807644 L126.210211,65.2590361 L124.739967,65.2590361 L125.555221,64.439759 L126.300794,64.439759 L126.447122,63.1543415 L127.471415,62.8082676 L127.297215,64.439759 L132.335063,64.439759 C132.646301,64.3173377 132.887855,64.256128 133.059733,64.256128 C133.645046,64.256128 133.937698,64.5645309 133.937698,65.1813461 C133.937698,65.8734974 133.605561,66.5491589 132.941277,67.2083506 C132.276994,67.8675424 131.468716,68.3266155 130.516421,68.5855837 C130.613973,69.7203353 131.055274,70.2877025 131.840337,70.2877025 C132.620754,70.2877025 133.259479,69.781545 133.756531,68.7692148 C133.87731,68.8492595 133.937698,68.9434283 133.937698,69.0517241 C133.937698,69.197688 133.786727,69.4472355 133.48478,69.8003739 C132.695072,70.7326594 131.910021,71.1987952 131.129603,71.1987952 C130.655778,71.1987952 130.265575,71.0081033 129.958983,70.6267138 C129.65239,70.2453242 129.499096,69.7580005 129.499096,69.1647279 C129.499096,68.5384957 129.662842,67.8593029 129.990339,67.1271292 C130.317835,66.3949555 130.737071,65.772264 131.248059,65.2590361 L127.206631,65.2590361 Z M130.551261,67.7239302 C130.685976,67.7710153 130.806753,67.7945575 130.913596,67.7945575 C131.489618,67.7945575 131.99363,67.6156367 132.425647,67.2577898 C132.857664,66.8999428 133.073669,66.4832457 133.073669,66.0076859 C133.073669,65.4520814 132.797275,65.1742833 132.24448,65.1742833 C131.84498,65.1742833 131.482649,65.4179452 131.157475,65.9052763 C130.832301,66.3926073 130.630232,66.9988193 130.551261,67.7239302 Z M139.065265,68.2112588 C138.540342,69.0870422 137.963166,69.8039025 137.333723,70.3618612 C136.704279,70.91982 136.157298,71.1987952 135.692764,71.1987952 C135.056352,71.1987952 134.738151,70.6785123 134.738151,69.637931 C134.738151,68.2065432 135.201517,66.9670458 136.128262,65.9194017 C137.055008,64.8717577 138.152454,64.3479435 139.420632,64.3479435 C139.903748,64.3479435 140.314854,64.4091532 140.653964,64.5315746 C140.630738,64.6163278 140.616802,64.6681207 140.612156,64.6869547 L140.528541,65.0612796 C140.472797,65.3202478 140.442602,65.4709179 140.437957,65.5132946 L139.992006,68.6350229 L139.929295,69.0870378 C139.868905,69.5343465 139.838711,69.8333326 139.838711,69.984005 C139.838711,70.186471 139.896777,70.2877025 140.01291,70.2877025 C140.403119,70.2877025 140.802612,69.845109 141.211402,68.9599086 C141.336827,69.0352448 141.399538,69.1105799 141.399538,69.1859161 C141.399538,69.350714 141.199791,69.6826592 140.800292,70.1817615 C140.256787,70.8597874 139.752775,71.1987952 139.288241,71.1987952 C138.949131,71.1987952 138.779578,70.9680815 138.779578,70.5066473 C138.779578,70.3653919 138.795837,70.1699916 138.828354,69.9204404 L138.898034,69.3554217 L138.988617,68.7339011 L139.065265,68.2112588 Z M139.46244,65.4073536 C139.039714,65.1672194 138.612349,65.0471541 138.180332,65.0471541 C137.529984,65.0471541 136.984165,65.4497259 136.542857,66.2548816 C136.10155,67.0600373 135.880899,68.058227 135.880899,69.2494807 C135.880899,69.8615873 136.059742,70.1676361 136.417434,70.1676361 C136.830869,70.1676361 137.330236,69.847462 137.915549,69.2071043 C138.705257,68.3454465 139.18372,67.3331314 139.350952,66.1701288 L139.46244,65.4073536 Z M150.679155,64.439759 L149.884805,65.4073536 C149.513178,65.2519726 149.157815,65.1742833 148.818705,65.1742833 C148.210165,65.1742833 147.73054,65.4356019 147.379817,65.9582468 C147.029094,66.4808917 146.853735,67.1965749 146.853735,68.1053178 C146.853735,68.7456755 146.980318,69.26125 147.23349,69.6520565 C147.486661,70.0428631 147.817636,70.2382634 148.226426,70.2382634 C148.918582,70.2382634 149.462079,69.7791903 149.856933,68.8610303 C149.959131,68.9740346 150.010229,69.0799746 150.010229,69.1788533 C150.010229,69.5696599 149.709448,70.0040137 149.107876,70.4819277 C148.506304,70.9598417 147.954678,71.1987952 147.452981,71.1987952 C146.969865,71.1987952 146.573856,71.0022177 146.264941,70.6090569 C145.956025,70.2158961 145.80157,69.7062073 145.80157,69.0799751 C145.80157,67.8604703 146.210354,66.7516322 147.027934,65.7534275 C147.845514,64.7552228 148.753665,64.256128 149.752414,64.256128 C150.11475,64.256128 150.423661,64.3173377 150.679155,64.439759 Z M155.521035,68.2112588 C154.996111,69.0870422 154.418936,69.8039025 153.789492,70.3618612 C153.160048,70.91982 152.613067,71.1987952 152.148533,71.1987952 C151.512121,71.1987952 151.19392,70.6785123 151.19392,69.637931 C151.19392,68.2065432 151.657286,66.9670458 152.584032,65.9194017 C153.510778,64.8717577 154.608223,64.3479435 155.876402,64.3479435 C156.359517,64.3479435 156.770624,64.4091532 157.109734,64.5315746 C157.086507,64.6163278 157.072571,64.6681207 157.067926,64.6869547 L156.98431,65.0612796 C156.928566,65.3202478 156.898372,65.4709179 156.893726,65.5132946 L156.447776,68.6350229 L156.385064,69.0870378 C156.324674,69.5343465 156.29448,69.8333326 156.29448,69.984005 C156.29448,70.186471 156.352546,70.2877025 156.46868,70.2877025 C156.858888,70.2877025 157.258382,69.845109 157.667172,68.9599086 C157.792596,69.0352448 157.855307,69.1105799 157.855307,69.1859161 C157.855307,69.350714 157.655561,69.6826592 157.256061,70.1817615 C156.712556,70.8597874 156.208544,71.1987952 155.74401,71.1987952 C155.4049,71.1987952 155.235348,70.9680815 155.235348,70.5066473 C155.235348,70.3653919 155.251606,70.1699916 155.284123,69.9204404 L155.353803,69.3554217 L155.444387,68.7339011 L155.521035,68.2112588 Z M155.918209,65.4073536 C155.495483,65.1672194 155.068118,65.0471541 154.636101,65.0471541 C153.985754,65.0471541 153.439934,65.4497259 152.998627,66.2548816 C152.557319,67.0600373 152.336669,68.058227 152.336669,69.2494807 C152.336669,69.8615873 152.515512,70.1676361 152.873203,70.1676361 C153.286638,70.1676361 153.786005,69.847462 154.371318,69.2071043 C155.161026,68.3454465 155.639489,67.3331314 155.806722,66.1701288 L155.918209,65.4073536 Z M161.839261,70.8174076 L162.800842,70.0193187 C163.163178,70.4101252 163.618415,70.6055256 164.166566,70.6055256 C164.835495,70.6055256 165.169954,70.2782888 165.169954,69.6238056 C165.169954,69.2612501 164.863366,68.7550926 164.250181,68.1053178 L163.853007,67.6886165 C163.272339,67.0718014 162.982009,66.5727065 162.982009,66.191317 C162.982009,65.6451295 163.215434,65.1860564 163.682291,64.8140839 C164.149148,64.4421114 164.724,64.256128 165.406866,64.256128 C165.778493,64.256128 166.184954,64.3267546 166.626262,64.46801 L165.790104,65.2519734 C165.437058,64.9835882 165.044533,64.8493976 164.612516,64.8493976 C164.106174,64.8493976 163.853007,65.0636317 163.853007,65.4921064 C163.853007,65.7981597 164.134045,66.2478159 164.696132,66.8410885 L165.128147,67.3072289 C165.769204,67.9852547 166.089727,68.531434 166.089727,68.9457831 C166.089727,69.5390557 165.808689,70.0628699 165.246602,70.5172414 C164.684516,70.9716129 164.0365,71.1987952 163.302536,71.1987952 C162.782258,71.1987952 162.294504,71.0716672 161.839261,70.8174076 Z M169.44046,65.2590361 L169.092061,68.3807644 C169.031672,68.9410774 169.001477,69.3554203 169.001477,69.6238056 C169.001477,70.1558675 169.18032,70.4218945 169.538012,70.4218945 C169.923575,70.4218945 170.323068,70.1017204 170.736504,69.4613627 C170.806184,69.5508244 170.841024,69.6308679 170.841024,69.7014956 C170.841024,69.9651723 170.612244,70.280638 170.154678,70.647902 C169.697112,71.0151659 169.303425,71.1987952 168.973605,71.1987952 C168.313967,71.1987952 167.984153,70.770327 167.984153,69.9133776 C167.984153,69.5979073 168.023637,69.0870413 168.102608,68.3807644 L168.444039,65.2590361 L166.973796,65.2590361 L167.789049,64.439759 L168.534623,64.439759 L168.68095,63.1543415 L169.705243,62.8082676 L169.531044,64.439759 L173.530663,64.439759 L173.070777,68.6350229 L173.022001,69.0870378 C172.980193,69.4872614 172.959289,69.7697679 172.959289,69.9345658 C172.959289,70.1699915 173.019677,70.2877025 173.140456,70.2877025 C173.53531,70.2877025 173.923191,69.845109 174.304109,68.9599086 C174.434178,69.0352448 174.499212,69.1129341 174.499212,69.1929788 C174.499212,69.3577768 174.308756,69.6873677 173.927838,70.1817615 C173.402914,70.8597874 172.910515,71.1987952 172.450627,71.1987952 C172.092935,71.1987952 171.914092,70.9492478 171.914092,70.4501454 C171.914092,70.2665134 171.944287,69.9016092 172.004676,69.3554217 L172.067388,68.7339011 L172.450627,65.2590361 L169.44046,65.2590361 Z M172.966257,63.3450353 L173.551567,61.8830494 C174.071845,61.6664579 174.49921,61.3674718 174.833675,60.9860823 C174.884774,61.0520014 174.910323,61.1202738 174.910323,61.1909015 C174.910323,61.8218422 174.262307,62.5398796 172.966257,63.3450353 Z M177.940528,68.9387204 C178.075243,69.0046396 178.1426,69.0893915 178.1426,69.1929788 C178.1426,69.5319917 177.892916,69.9510431 177.393542,70.4501454 C176.894168,70.9492478 176.474932,71.1987952 176.135822,71.1987952 C175.750259,71.1987952 175.55748,70.9162887 175.55748,70.3512671 C175.55748,70.0075457 175.578384,69.6567668 175.620192,69.2989198 L175.696839,68.6703365 L176.233374,63.7546739 C176.400606,62.2573668 176.908102,61.0072755 177.755877,60.0043623 C178.603652,59.0014491 179.58032,58.5 180.685912,58.5 C180.955342,58.5 181.18296,58.5235422 181.368774,58.5706273 L180.379321,59.5947237 C180.16099,59.5193875 179.9055,59.48172 179.612843,59.48172 C178.916042,59.48172 178.39461,59.7300903 178.048532,60.2268384 C177.702454,60.7235865 177.464384,61.5652205 177.334314,62.7517657 L176.686292,68.6703365 C176.635194,69.1270622 176.609645,69.454299 176.609645,69.6520565 C176.609645,70.0758226 176.681646,70.2877025 176.825652,70.2877025 C176.997529,70.2877025 177.199599,70.1476264 177.431866,69.8674699 C177.664133,69.5873134 177.833685,69.2777333 177.940528,68.9387204 Z M187.345569,64.362069 L187.415249,63.7546739 C187.582481,62.2479498 188.089977,60.9955042 188.937752,59.9972995 C189.785527,58.9990949 190.762195,58.5 191.867787,58.5 C192.132571,58.5 192.36019,58.5235422 192.550649,58.5706273 L191.561196,59.5947237 C191.342865,59.5193875 191.085052,59.48172 190.78775,59.48172 C190.090949,59.48172 189.570678,59.7289132 189.226923,60.223307 C188.883168,60.7177009 188.646259,61.560512 188.516189,62.7517657 L187.868167,68.6350229 L187.819391,69.0870378 C187.777583,69.4872614 187.75668,69.7721221 187.75668,69.9416286 C187.75668,70.1723457 187.817068,70.2877025 187.937847,70.2877025 C188.32341,70.2877025 188.711291,69.845109 189.101499,68.9599086 C189.226924,69.0352448 189.289635,69.1105799 189.289635,69.1859161 C189.289635,69.3554225 189.101501,69.6873677 188.725229,70.1817615 C188.200305,70.8597874 187.707906,71.1987952 187.248017,71.1987952 C186.890326,71.1987952 186.711483,70.9492478 186.711483,70.4501454 C186.711483,70.2665134 186.739354,69.9016092 186.795099,69.3554217 L186.864778,68.7339011 L186.920522,68.2112588 C186.604639,68.9175357 186.092498,69.5920201 185.384083,70.234732 C184.675668,70.877444 184.091525,71.1987952 183.631637,71.1987952 C182.976643,71.1987952 182.649152,70.6785123 182.649152,69.637931 C182.649152,68.2771709 183.102066,67.0553302 184.007907,65.9723722 C184.913749,64.8894143 185.935709,64.3479435 187.073818,64.3479435 C187.129562,64.3479435 187.220145,64.3526519 187.345569,64.362069 Z M187.234081,65.3720399 C186.843872,65.1554483 186.486187,65.0471541 186.161013,65.0471541 C185.473502,65.0471541 184.906779,65.4426633 184.460826,66.2336934 C184.014873,67.0247235 183.7919,68.0299759 183.7919,69.2494807 C183.7919,69.8615873 183.96842,70.1676361 184.321466,70.1676361 C184.748838,70.1676361 185.250527,69.847462 185.82655,69.2071043 C186.57445,68.3831146 187.015751,67.3707995 187.150465,66.1701288 L187.234081,65.3720399 Z M194.145451,68.7692148 C194.261584,68.8492595 194.31965,68.9434283 194.31965,69.0517241 C194.31965,69.197688 194.171001,69.4472355 193.873699,69.8003739 C193.079346,70.7326594 192.294295,71.1987952 191.518523,71.1987952 C191.044698,71.1987952 190.654495,71.0081033 190.347902,70.6267138 C190.04131,70.2453242 189.888016,69.7580005 189.888016,69.1647279 C189.888016,68.091187 190.288671,67.004714 191.089992,65.9052763 C191.891314,64.8058386 192.684494,64.256128 193.469557,64.256128 C194.036288,64.256128 194.31965,64.5645309 194.31965,65.1813461 C194.31965,65.8734974 193.988674,66.5491589 193.326713,67.2083506 C192.664752,67.8675424 191.857636,68.3266155 190.905341,68.5855837 C190.998248,69.7203353 191.439548,70.2877025 192.229257,70.2877025 C193.009674,70.2877025 193.648399,69.781545 194.145451,68.7692148 Z M190.933213,67.7239302 C191.067928,67.7710153 191.191027,67.7945575 191.302515,67.7945575 C191.878538,67.7945575 192.38255,67.6156367 192.814567,67.2577898 C193.246584,66.8999428 193.462589,66.4808915 193.462589,66.0006232 C193.462589,65.4497272 193.186195,65.1742833 192.633399,65.1742833 C192.2339,65.1742833 191.87273,65.415591 191.549879,65.8982135 C191.227027,66.3808361 191.021474,66.9894022 190.933213,67.7239302 Z M202.135991,69.6308683 C203.432042,67.7945484 204.080057,66.5162063 204.080057,65.7958039 C204.080057,65.5274187 203.945344,65.3155388 203.675915,65.1601579 L204.546912,64.256128 C204.886022,64.4303429 205.055574,64.708141 205.055574,65.0895305 C205.055574,65.5603818 204.611951,66.4761738 203.724691,67.8369339 C203.529586,68.1288617 203.392551,68.3407416 203.31358,68.47258 L203.13938,68.7762775 L202.818853,69.2918571 C202.64233,69.5743678 202.456519,69.8921877 202.261415,70.2453261 L201.292866,71.1987952 C201.116343,69.6826541 200.828336,68.307789 200.428837,67.0741587 C200.029337,65.8405284 199.671651,65.2237225 199.355768,65.2237225 C199.002722,65.2237225 198.756523,65.5792099 198.617163,66.2901953 C198.482448,66.2431101 198.415091,66.1654208 198.415091,66.0571251 C198.415091,65.6992781 198.567224,65.3131858 198.871494,64.8988367 C199.175764,64.4844876 199.462609,64.2702535 199.732039,64.256128 C200.740078,64.2043343 201.541388,65.9958965 202.135991,69.6308683 Z M208.691994,68.9599086 C208.817418,69.0352448 208.880129,69.1082257 208.880129,69.1788533 C208.880129,69.3483598 208.67806,69.6826592 208.273915,70.1817615 C207.73041,70.8597874 207.226398,71.1987952 206.761864,71.1987952 C206.422754,71.1987952 206.253202,70.9704357 206.253202,70.51371 C206.253202,70.320661 206.322881,69.7273973 206.462241,68.7339011 L206.733992,66.8128376 L206.803672,66.3255089 L206.859416,65.9370586 C206.882642,65.7722606 206.894256,65.6333616 206.894256,65.5203573 C206.894256,65.2849317 206.829222,65.1672206 206.699152,65.1672206 C206.336816,65.1672206 205.946613,65.5721466 205.528532,66.3820108 C205.44027,66.3019661 205.39614,66.2219226 205.39614,66.1418779 C205.39614,65.8546586 205.657437,65.4685663 206.180038,64.9835895 C206.702639,64.4986127 207.119552,64.256128 207.43079,64.256128 C207.779191,64.256128 207.953388,64.5009669 207.953388,64.9906523 C207.953388,65.0848225 207.934807,65.2778686 207.897644,65.5697964 L207.834933,66.0429996 C207.830287,66.0806677 207.804738,66.2713596 207.758285,66.615081 L207.472598,68.6350229 L207.402918,69.0870378 C207.342529,69.5343465 207.312334,69.8333326 207.312334,69.984005 C207.312334,70.186471 207.3704,70.2877025 207.486534,70.2877025 C207.876742,70.2877025 208.278558,69.845109 208.691994,68.9599086 Z M207.29143,63.3450353 L207.87674,61.8830494 C208.397019,61.6664579 208.824384,61.3674718 209.158848,60.9860823 C209.205302,61.0520014 209.228528,61.1202738 209.228528,61.1909015 C209.228528,61.8218422 208.582835,62.5398796 207.29143,63.3450353 Z M213.770785,68.2112588 C213.245861,69.0870422 212.668686,69.8039025 212.039242,70.3618612 C211.409799,70.91982 210.862818,71.1987952 210.398284,71.1987952 C209.761872,71.1987952 209.443671,70.6785123 209.443671,69.637931 C209.443671,68.2065432 209.907036,66.9670458 210.833782,65.9194017 C211.760528,64.8717577 212.857974,64.3479435 214.126152,64.3479435 C214.609267,64.3479435 215.020374,64.4091532 215.359484,64.5315746 C215.336257,64.6163278 215.322322,64.6681207 215.317676,64.6869547 L215.23406,65.0612796 C215.178316,65.3202478 215.148122,65.4709179 215.143477,65.5132946 L214.697526,68.6350229 L214.634814,69.0870378 C214.574425,69.5343465 214.544231,69.8333326 214.544231,69.984005 C214.544231,70.186471 214.602296,70.2877025 214.71843,70.2877025 C215.108639,70.2877025 215.508132,69.845109 215.916922,68.9599086 C216.042347,69.0352448 216.105058,69.1105799 216.105058,69.1859161 C216.105058,69.350714 215.905311,69.6826592 215.505812,70.1817615 C214.962307,70.8597874 214.458295,71.1987952 213.99376,71.1987952 C213.65465,71.1987952 213.485098,70.9680815 213.485098,70.5066473 C213.485098,70.3653919 213.501356,70.1699916 213.533874,69.9204404 L213.603554,69.3554217 L213.694137,68.7339011 L213.770785,68.2112588 Z M214.16796,65.4073536 C213.745234,65.1672194 213.317869,65.0471541 212.885852,65.0471541 C212.235504,65.0471541 211.689684,65.4497259 211.248377,66.2548816 C210.807069,67.0600373 210.586419,68.058227 210.586419,69.2494807 C210.586419,69.8615873 210.765262,70.1676361 211.122953,70.1676361 C211.536389,70.1676361 212.035756,69.847462 212.621069,69.2071043 C213.410777,68.3454465 213.88924,67.3331314 214.056472,66.1701288 L214.16796,65.4073536 Z M218.849576,65.2590361 L218.501177,68.3807644 C218.440788,68.9410774 218.410593,69.3554203 218.410593,69.6238056 C218.410593,70.1558675 218.589436,70.4218945 218.947128,70.4218945 C219.332691,70.4218945 219.732185,70.1017204 220.14562,69.4613627 C220.2153,69.5508244 220.25014,69.6308679 220.25014,69.7014956 C220.25014,69.9651723 220.02136,70.280638 219.563794,70.647902 C219.106228,71.0151659 218.712541,71.1987952 218.382722,71.1987952 C217.723083,71.1987952 217.393269,70.770327 217.393269,69.9133776 C217.393269,69.5979073 217.432753,69.0870413 217.511724,68.3807644 L217.853155,65.2590361 L216.382912,65.2590361 L217.198165,64.439759 L217.943739,64.439759 L218.090066,63.1543415 L219.114359,62.8082676 L218.94016,64.439759 L221.894583,64.439759 L221.079329,65.2590361 L218.849576,65.2590361 Z M217.588372,75.5 L217.386301,75.2669298 C217.934451,74.8714147 218.208522,74.4241127 218.208522,73.9250104 C218.208522,73.5342038 218.013421,73.1928418 217.623212,72.900914 L218.410593,72.1098878 C218.865837,72.4489007 219.093455,72.856181 219.093455,73.3317408 C219.093455,74.0003496 218.591766,74.7230954 217.588372,75.5 Z M225.844561,68.2112588 C225.319638,69.0870422 224.742462,69.8039025 224.113019,70.3618612 C223.483575,70.91982 222.936594,71.1987952 222.47206,71.1987952 C221.835648,71.1987952 221.517447,70.6785123 221.517447,69.637931 C221.517447,68.2065432 221.980813,66.9670458 222.907558,65.9194017 C223.834304,64.8717577 224.93175,64.3479435 226.199928,64.3479435 C226.683044,64.3479435 227.09415,64.4091532 227.43326,64.5315746 C227.410033,64.6163278 227.396098,64.6681207 227.391452,64.6869547 L227.307837,65.0612796 C227.252092,65.3202478 227.221898,65.4709179 227.217253,65.5132946 L226.771302,68.6350229 L226.70859,69.0870378 C226.648201,69.5343465 226.618007,69.8333326 226.618007,69.984005 C226.618007,70.186471 226.676073,70.2877025 226.792206,70.2877025 C227.182415,70.2877025 227.581908,69.845109 227.990698,68.9599086 C228.116123,69.0352448 228.178834,69.1105799 228.178834,69.1859161 C228.178834,69.350714 227.979087,69.6826592 227.579588,70.1817615 C227.036083,70.8597874 226.532071,71.1987952 226.067536,71.1987952 C225.728426,71.1987952 225.558874,70.9680815 225.558874,70.5066473 C225.558874,70.3653919 225.575133,70.1699916 225.60765,69.9204404 L225.67733,69.3554217 L225.767913,68.7339011 L225.844561,68.2112588 Z M226.241736,65.4073536 C225.81901,65.1672194 225.391645,65.0471541 224.959628,65.0471541 C224.30928,65.0471541 223.763461,65.4497259 223.322153,66.2548816 C222.880846,67.0600373 222.660195,68.058227 222.660195,69.2494807 C222.660195,69.8615873 222.839038,70.1676361 223.196729,70.1676361 C223.610165,70.1676361 224.109532,69.847462 224.694845,69.2071043 C225.484553,68.3454465 225.963016,67.3331314 226.130248,66.1701288 L226.241736,65.4073536 Z M224.478837,61.657042 L225.266219,60.8307021 C225.256928,60.9342894 225.252283,61.0119787 225.252283,61.0637723 C225.238347,61.2191532 225.231379,61.3298016 225.231379,61.3957208 C225.231379,62.1773339 225.442739,62.5681346 225.865465,62.5681346 C226.134895,62.5681346 226.403159,62.4045162 226.670267,62.0772746 C226.937374,61.750033 227.138282,61.334513 227.272997,60.8307021 C227.430938,60.8777872 227.509908,60.9696019 227.509908,61.1061487 C227.509908,61.5487489 227.281128,62.0325413 226.823562,62.5575405 C226.365996,63.0825397 225.94676,63.3450353 225.565842,63.3450353 C224.841169,63.3450353 224.478837,62.7823765 224.478837,61.657042 Z M230.602825,67.5685501 L229.72486,68.2395098 L229.808476,67.0600332 C229.882801,66.047703 229.919963,65.1601617 229.919963,64.3973826 C229.919963,63.2014204 229.829381,62.2244187 229.648212,61.4663482 L230.916384,60.9719568 C230.972128,61.3815974 231,61.7959403 231,62.2149979 C231,63.0672387 230.941934,64.0560115 230.825801,65.1813461 C230.765411,65.7793272 230.730572,66.1112723 230.721281,66.1771915 L230.602825,67.5685501 Z M229.7597,71.2906107 C229.55066,70.843302 229.278911,70.5090026 228.944446,70.2877025 L229.975707,69.2918571 C230.2823,69.5225742 230.549403,69.8545194 230.777025,70.2877025 L229.7597,71.2906107 Z" id="Sănătatacastldeviață!" fill="#004584" fill-rule="nonzero"></path>
    </g>
</svg>